<?xml version="1.0" encoding="UTF-8"?>
<svg version="1.1" xmlns="http://www.w3.org/2000/svg" width="387" height="74">
<path d="M0 0 C127.71 0 255.42 0 387 0 C387 24.42 387 48.84 387 74 C259.29 74 131.58 74 0 74 C0 49.58 0 25.16 0 0 Z " fill="#FCFCFC" transform="translate(0,0)"/>
<path d="M0 0 C5.26417942 3.12953052 7.5681877 7.41461952 9.12890625 13.265625 C10.26490071 23.31229465 10.60631381 33.96309156 4.12890625 42.265625 C-1.08595317 47.76236871 -7.52539681 49.43683517 -14.87109375 49.640625 C-20.92333501 49.45006325 -26.0485433 48.87396404 -30.62109375 44.6484375 C-37.02101934 37.47929008 -38.20192369 30.61673704 -38.0859375 21.14453125 C-37.53069782 13.70431952 -35.47073529 7.38870131 -29.87109375 2.265625 C-20.48268484 -4.24068044 -10.34718554 -4.71685505 0 0 Z " fill="#3DB5F9" transform="translate(370.87109375,12.734375)"/>
<path d="M0 0 C2.9375 0.75 2.9375 0.75 4.9375 2.75 C5.741875 2.255 6.54625 1.76 7.375 1.25 C12.2472021 -0.80145352 16.84621925 -1.1391908 21.9609375 0.33203125 C25.15980808 2.62687318 26.77013367 5.06150856 27.9375 8.75 C28.41417632 13.73511653 28.31563852 18.6882846 28.1875 23.6875 C28.16740673 25.05270821 28.14916094 26.41794493 28.1328125 27.78320312 C28.08584433 31.10620134 28.02016726 34.42772992 27.9375 37.75 C25.16649606 39.13550197 23.0040294 38.9377467 19.9375 38.75 C18.9475 38.09 17.9575 37.43 16.9375 36.75 C16.50512695 34.04443359 16.50512695 34.04443359 16.42578125 30.6484375 C16.37260742 28.83085938 16.37260742 28.83085938 16.31835938 26.9765625 C16.29580078 25.70554687 16.27324219 24.43453125 16.25 23.125 C16.21583984 21.84625 16.18167969 20.5675 16.14648438 19.25 C16.06377521 16.08342068 15.99469915 12.91712636 15.9375 9.75 C12.46808454 10.20822468 9.26354951 10.64131683 5.9375 11.75 C5.6075 20.33 5.2775 28.91 4.9375 37.75 C2.16649606 39.13550197 0.0040294 38.9377467 -3.0625 38.75 C-4.0525 38.09 -5.0425 37.43 -6.0625 36.75 C-6.36678666 34.07840142 -6.48261412 31.64227186 -6.4609375 28.96875 C-6.46380768 28.19946167 -6.46667786 27.43017334 -6.46963501 26.63757324 C-6.47167763 25.01016504 -6.46613391 23.38273241 -6.45361328 21.75537109 C-6.43756132 19.25953451 -6.45345411 16.76531727 -6.47265625 14.26953125 C-6.47067385 12.69010058 -6.46683024 11.11067092 -6.4609375 9.53125 C-6.46701019 8.7822644 -6.47308289 8.03327881 -6.4793396 7.26159668 C-6.45068359 5.15820312 -6.45068359 5.15820312 -6.0625 1.75 C-3.0625 -0.25 -3.0625 -0.25 0 0 Z " fill="#F5F7F7" transform="translate(265.0625,23.25)"/>
<path d="M0 0 C3.52680379 1.96017636 5.70233114 4.10699343 7 8 C7.14880933 10.78445155 7.23107 13.52742385 7.25 16.3125 C7.270625 17.05951172 7.29125 17.80652344 7.3125 18.57617188 C7.34677332 23.45583635 6.75167233 26.80431945 4 31 C1.0192679 33.97443034 -1.27779976 34.45384521 -5.4375 34.5 C-9.32031617 34.37574988 -10.73463316 34.17330079 -14.0625 32 C-17.98053731 25.93336159 -18.80292585 19.09045291 -18 12 C-17.04952733 8.01772765 -15.96786709 4.93762125 -13 2.0625 C-8.82578278 -0.1550529 -4.64649512 -0.79779444 0 0 Z " fill="#FBFCFC" transform="translate(362,19)"/>
<path d="M0 0 C1.08539063 0.0825 2.17078125 0.165 3.2890625 0.25 C13.16127083 1.31967494 13.16127083 1.31967494 16.1875 4.75 C19.76658559 11.1676707 20.29204718 16.49575457 20.1875 23.6875 C20.18685547 24.54150391 20.18621094 25.39550781 20.18554688 26.27539062 C20.16037787 29.83540686 20.13548452 32.59354645 19 36 C17.02 36 15.04 36 13 36 C13.33 37.65 13.66 39.3 14 41 C12.515 40.505 12.515 40.505 11 40 C11 39.34 11 38.68 11 38 C10.34 38 9.68 38 9 38 C9.165 36.88625 9.33 35.7725 9.5 34.625 C10.4198063 27.06659169 11.24049733 18.11109137 8 11 C5.04765553 8.85334283 5.04765553 8.85334283 2 8 C2 7.34 2 6.68 2 6 C-1.63 6 -5.26 6 -9 6 C-9 5.34 -9 4.68 -9 4 C-10.65 4.66 -12.3 5.32 -14 6 C-14.66 5.34 -15.32 4.68 -16 4 C-10.38953462 0.18010868 -6.70351604 -0.64418172 0 0 Z " fill="#3FB5F8" transform="translate(360,12)"/>
<path d="M0 0 C0 0.33 0 0.66 0 1 C-0.68964844 0.9278125 -1.37929688 0.855625 -2.08984375 0.78125 C-5.05802653 0.48809615 -8.02658153 0.23403681 -11 0 C-11.84433594 -0.06832031 -12.68867188 -0.13664063 -13.55859375 -0.20703125 C-17.71321838 -0.39619628 -19.47315084 -0.34406476 -23.0625 2 C-23.701875 2.66 -24.34125 3.32 -25 4 C-23.35 3.67 -21.7 3.34 -20 3 C-20 3.66 -20 4.32 -20 5 C-16.37 5 -12.74 5 -9 5 C-9 5.33 -9 5.66 -9 6 C-9.74765625 6.10957031 -10.4953125 6.21914063 -11.265625 6.33203125 C-12.25046875 6.49058594 -13.2353125 6.64914063 -14.25 6.8125 C-15.22453125 6.96332031 -16.1990625 7.11414062 -17.203125 7.26953125 C-20.18000058 8.04701133 -21.77341993 8.89993016 -24 11 C-27.52908235 19.82270587 -26.33047016 27.40635161 -23 36 C-22.67 36.99 -22.34 37.98 -22 39 C-13.39568636 39.83965965 -13.39568636 39.83965965 -5.75 36.6875 C-2.74450331 32.0719158 -2.81700553 27.95954596 -2.8125 22.625 C-2.79413086 21.49191406 -2.79413086 21.49191406 -2.77539062 20.3359375 C-2.76427328 16.09652181 -3.04948178 12.87019821 -5 9 C-4.01 9.33 -3.02 9.66 -2 10 C1.61235847 18.48034957 0.53770173 28.43525667 -2 37 C-1.34 37 -0.68 37 0 37 C0 37.66 0 38.32 0 39 C-1.65 39 -3.3 39 -5 39 C-5.33 39.66 -5.66 40.32 -6 41 C-9.0546875 41.73828125 -9.0546875 41.73828125 -12.875 42.3125 C-14.13054687 42.51488281 -15.38609375 42.71726563 -16.6796875 42.92578125 C-20 43 -20 43 -21.8125 41.69921875 C-22.204375 41.13847656 -22.59625 40.57773437 -23 40 C-23.70125 39.175 -24.4025 38.35 -25.125 37.5 C-27.65892798 34.12142936 -28.12520822 31.65602424 -28.09765625 27.55078125 C-28.09443359 26.70322266 -28.09121094 25.85566406 -28.08789062 24.98242188 C-28.07951172 24.10134766 -28.07113281 23.22027344 -28.0625 22.3125 C-28.05798828 21.41982422 -28.05347656 20.52714844 -28.04882812 19.60742188 C-28.03704983 17.40488013 -28.02060164 15.20247401 -28 13 C-27.34 13 -26.68 13 -26 13 C-26.33 10.69 -26.66 8.38 -27 6 C-28.98 6.33 -30.96 6.66 -33 7 C-31.60802671 3.61743279 -30.1974504 2.16311318 -27.0625 0.3125 C-26.37285156 -0.10386719 -25.68320312 -0.52023438 -24.97265625 -0.94921875 C-17.11410788 -5.13525739 -7.74982721 -3.57684333 0 0 Z " fill="#4FB2ED" transform="translate(371,13)"/>
<path d="M0 0 C0.02689216 1.47906892 0.04634621 2.95827483 0.0625 4.4375 C0.07410156 5.26121094 0.08570313 6.08492187 0.09765625 6.93359375 C0 9 0 9 -1 10 C-2.51928038 10.07179964 -4.04167482 10.08392007 -5.5625 10.0625 C-6.38878906 10.05347656 -7.21507812 10.04445313 -8.06640625 10.03515625 C-8.70449219 10.02355469 -9.34257812 10.01195312 -10 10 C-10.66 8.68 -11.32 7.36 -12 6 C-14.31 6.33 -16.62 6.66 -19 7 C-17.68 6.67 -16.36 6.34 -15 6 C-15 4.35 -15 2.7 -15 1 C-14.67 2.32 -14.34 3.64 -14 5 C-13.34 5 -12.68 5 -12 5 C-11.8453125 4.071875 -11.8453125 4.071875 -11.6875 3.125 C-9.79926475 -2.71136351 -4.66636459 -0.7649778 0 0 Z " fill="#F1F3F4" transform="translate(170,9)"/>
<path d="M0 0 C0 1.98 0 3.96 0 6 C-2.475 4.515 -2.475 4.515 -5 3 C-5.99 3.66 -6.98 4.32 -8 5 C-10.69921875 4.9765625 -10.69921875 4.9765625 -13.6875 4.625 C-15.17830078 4.45871094 -15.17830078 4.45871094 -16.69921875 4.2890625 C-17.45847656 4.19367187 -18.21773438 4.09828125 -19 4 C-19 3.34 -19 2.68 -19 2 C-20.65 2.66 -22.3 3.32 -24 4 C-24.66 3.34 -25.32 2.68 -26 2 C-17.33060824 -3.9025646 -9.83331348 -2.29922988 0 0 Z M-3 5 C-2.67 5.66 -2.34 6.32 -2 7 C-2.66 6.67 -3.32 6.34 -4 6 C-3.67 5.67 -3.34 5.34 -3 5 Z " fill="#37B6FB" transform="translate(370,14)"/>
<path d="M0 0 C0.99 0.33 1.98 0.66 3 1 C6.61235847 9.48034957 5.53770173 19.43525667 3 28 C3.66 28 4.32 28 5 28 C5 28.66 5 29.32 5 30 C3.35 30 1.7 30 0 30 C-0.33 30.66 -0.66 31.32 -1 32 C-4.0546875 32.73828125 -4.0546875 32.73828125 -7.875 33.3125 C-9.13054687 33.51488281 -10.38609375 33.71726563 -11.6796875 33.92578125 C-15 34 -15 34 -16.80859375 32.6796875 C-17.20175781 32.12539063 -17.59492188 31.57109375 -18 31 C-19.0828125 29.9171875 -19.0828125 29.9171875 -20.1875 28.8125 C-22.68051222 24.94403276 -22.30766876 22.53811421 -22 18 C-21.67 18 -21.34 18 -21 18 C-19.66666667 22 -18.33333333 26 -17 30 C-8.39568636 30.83965965 -8.39568636 30.83965965 -0.75 27.6875 C2.25549669 23.0719158 2.18299447 18.95954596 2.1875 13.625 C2.20586914 12.49191406 2.20586914 12.49191406 2.22460938 11.3359375 C2.23572672 7.09652181 1.95051822 3.87019821 0 0 Z " fill="#67B5E6" transform="translate(366,22)"/>
<path d="M0 0 C0.33 0 0.66 0 1 0 C0.67 2.31 0.34 4.62 0 7 C-0.66 7 -1.32 7 -2 7 C-1.67 14.59 -1.34 22.18 -1 30 C-4.56495434 26.43504566 -4.09990984 21.57335186 -4.25 16.75 C-4.21528451 11.68153781 -3.81849055 3.81849055 0 0 Z " fill="#65B4E4" transform="translate(337,20)"/>
<path d="M0 0 C0 0.33 0 0.66 0 1 C-0.66644531 0.9278125 -1.33289063 0.855625 -2.01953125 0.78125 C-15.23731447 -0.81496697 -15.23731447 -0.81496697 -28 2 C-20.9994562 -6.10589282 -8.68761772 -4.00966972 0 0 Z " fill="#6CB7E3" transform="translate(371,13)"/>
<path d="M0 0 C0.99 0 1.98 0 3 0 C2.67 1.32 2.34 2.64 2 4 C2.66 4 3.32 4 4 4 C4 5.32 4 6.64 4 8 C4.78375 7.938125 5.5675 7.87625 6.375 7.8125 C7.674375 7.9053125 7.674375 7.9053125 9 8 C9.99 9.485 9.99 9.485 11 11 C5.37082652 10.59791618 2.99613521 8.71069698 -1 5 C-0.34 4.67 0.32 4.34 1 4 C0.67 2.68 0.34 1.36 0 0 Z " fill="#4DB3EC" transform="translate(339,50)"/>
<path d="M0 0 C2.125 0.375 2.125 0.375 4 1 C3.35546875 1.45890625 2.7109375 1.9178125 2.046875 2.390625 C-0.99919291 6.27378028 -0.67187504 9.94176379 -0.75 14.75 C-0.77964844 15.63816406 -0.80929688 16.52632812 -0.83984375 17.44140625 C-0.91036918 19.62769449 -0.96314637 21.81292768 -1 24 C-1.33 24 -1.66 24 -2 24 C-2.05787784 20.37506666 -2.0935542 16.75025143 -2.125 13.125 C-2.14175781 12.09246094 -2.15851563 11.05992188 -2.17578125 9.99609375 C-2.18222656 9.00996094 -2.18867187 8.02382813 -2.1953125 7.0078125 C-2.20578613 6.09660645 -2.21625977 5.18540039 -2.22705078 4.24658203 C-2 2 -2 2 0 0 Z " fill="#EEF0F1" transform="translate(104,32)"/>
<path d="M0 0 C0.33 0 0.66 0 1 0 C1 2.97 1 5.94 1 9 C0.01 9 -0.98 9 -2 9 C-1.67 9.99 -1.34 10.98 -1 12 C-1.4375 14.1875 -1.4375 14.1875 -2 16 C-2.99 16 -3.98 16 -5 16 C-5 13.36 -5 10.72 -5 8 C-3.35 8 -1.7 8 0 8 C0 5.36 0 2.72 0 0 Z " fill="#E7ECEF" transform="translate(303,16)"/>
<path d="M0 0 C1.32 0.66 2.64 1.32 4 2 C3.01 3.32 2.02 4.64 1 6 C0.01 5.01 -0.98 4.02 -2 3 C-1.34 2.01 -0.68 1.02 0 0 Z " fill="#48B3F4" transform="translate(364,16)"/>
</svg>
